<svg xmlns="http://www.w3.org/2000/svg" width="120.616" height="41" viewBox="0 0 120.616 41">
  <g id="UFC" transform="translate(-75.046 -61.1)">
    <path id="Path_848" data-name="Path 848" d="M84.312,63.2H99.726L91.633,90.38a2.581,2.581,0,0,0,2.609,3.479h0a5.089,5.089,0,0,0,4.59-3.479l8.094-27.18h13.651l-9.326,34.742a7.979,7.979,0,0,1-7.272,5.581H80.35a4.991,4.991,0,0,1-5.074-6.62l9.036-33.7Z" transform="translate(0 -1.593)" fill="#d20a0a" fill-rule="evenodd"/>
    <path id="Path_849" data-name="Path 849" d="M257.659,150.065H242.8l7.272-25.465h30.684l-2.875,9.423H262.056Z" transform="translate(-127.225 -48.158)" fill="#d20a0a" fill-rule="evenodd"/>
    <path id="Path_850" data-name="Path 850" d="M416.845,61.5h20.126c2.948,0,7.949,2.368,6.91,6.113l-.411,1.474H425.519a2.357,2.357,0,0,0-2.126,1.643l-5.581,20.2a1.226,1.226,0,0,0,1.232,1.643h18.024l-1.3,4.784a7.278,7.278,0,0,1-6.692,5.049H407.834c-3.745,0-6.04-2.9-5.1-6.451l7.828-29.717a6.868,6.868,0,0,1,6.282-4.735Z" transform="translate(-248.359 -0.303)" fill="#d20a0a" fill-rule="evenodd"/>
    <path id="Path_851" data-name="Path 851" d="M310.335,70.957H294.559v.024H279.7l2.851-9.882H313.21l-2.875,9.857Z" transform="translate(-155.209)" fill="#d20a0a" fill-rule="evenodd"/>
  </g>
</svg>
